<?xml version="1.0" encoding="UTF-8" standalone="no"?>
<svg
   xmlns:dc="http://purl.org/dc/elements/1.1/"
   xmlns:cc="http://creativecommons.org/ns#"
   xmlns:rdf="http://www.w3.org/1999/02/22-rdf-syntax-ns#"
   xmlns:svg="http://www.w3.org/2000/svg"
   xmlns="http://www.w3.org/2000/svg"
   xmlns:xlink="http://www.w3.org/1999/xlink"
   xmlns:sodipodi="http://sodipodi.sourceforge.net/DTD/sodipodi-0.dtd"
   xmlns:inkscape="http://www.inkscape.org/namespaces/inkscape"
   fill="#000000"
   height="24"
   viewBox="0 0 24 24"
   width="24"
   version="1.1"
   id="svg10"
   sodipodi:docname="map_sideBySide.svg"
   inkscape:version="0.92.0 r15299">
  <metadata
     id="metadata14">
    <rdf:RDF>
      <cc:Work
         rdf:about="">
        <dc:format>image/svg+xml</dc:format>
        <dc:type
           rdf:resource="http://purl.org/dc/dcmitype/StillImage" />
        <dc:title />
      </cc:Work>
    </rdf:RDF>
  </metadata>
  <sodipodi:namedview
     pagecolor="#ffffff"
     bordercolor="#666666"
     borderopacity="1"
     objecttolerance="10"
     gridtolerance="10"
     guidetolerance="10"
     inkscape:pageopacity="0"
     inkscape:pageshadow="2"
     inkscape:window-width="1920"
     inkscape:window-height="1001"
     id="namedview12"
     showgrid="false"
     inkscape:zoom="9.8333333"
     inkscape:cx="-15.305085"
     inkscape:cy="12"
     inkscape:window-x="-9"
     inkscape:window-y="-9"
     inkscape:window-maximized="1"
     inkscape:current-layer="svg10" />
  <defs
     id="defs3">
    <path
       d="M0 0h24v24H0V0z"
       id="a" />
    <clipPath
       id="b-5">
      <use
         overflow="visible"
         xlink:href="#a"
         id="use5-4" />
    </clipPath>
    <clipPath
       id="b-2">
      <use
         overflow="visible"
         xlink:href="#a"
         id="use5-8" />
    </clipPath>
    <clipPath
       id="b-9">
      <use
         overflow="visible"
         xlink:href="#a"
         id="use5-0" />
    </clipPath>
  </defs>
  <clipPath
     id="b">
    <use
       overflow="visible"
       xlink:href="#a"
       id="use5" />
  </clipPath>
  <rect
     style="fill:none;stroke:#000000;stroke-width:1.02482378;stroke-opacity:1"
     id="rect3707"
     width="21.966103"
     height="22.002134"
     x="1.0169492"
     y="1.0826108"
     ry="2.3497424"
     rx="0" />
  <path
     style="fill:none;stroke:#000000;stroke-width:1.02300143px;stroke-linecap:butt;stroke-linejoin:miter;stroke-opacity:1"
     d="m 11.794916,1.2070422 0.104895,21.0487938 -0.20979,-0.206361"
     id="path4552"
     inkscape:connector-curvature="0" />
  <path
     inkscape:connector-curvature="0"
     d="m 10.322034,15.711865 v -5.694916 c 0,-0.4474575 -0.3864411,-0.8135592 -0.8587575,-0.8135592 H 3.4519773 c -0.4723163,0 -0.858757,0.3661017 -0.858757,0.8135592 v 5.694916 c 0,0.447457 0.3864407,0.813559 0.858757,0.813559 h 6.0112992 c 0.4723164,0 0.8587575,-0.366102 0.8587575,-0.813559 z m -5.3672318,-2.237289 1.0734463,1.224407 1.5028247,-1.834576 1.9322033,2.440678 H 3.4519773 Z"
     id="path4"
     style="stroke-width:0.41792637" />
  <path
     inkscape:connector-curvature="0"
     d="M 21.152542,15.661018 V 9.9661014 c 0,-0.4474575 -0.386441,-0.8135592 -0.858757,-0.8135592 h -6.011299 c -0.472316,0 -0.858757,0.3661017 -0.858757,0.8135592 v 5.6949166 c 0,0.447457 0.386441,0.813559 0.858757,0.813559 h 6.011299 c 0.472316,0 0.858757,-0.366102 0.858757,-0.813559 z m -5.367231,-2.237289 1.073446,1.224407 1.502825,-1.834576 1.932203,2.440678 h -6.011299 z"
     id="path4-0"
     style="stroke-width:0.41792637" />
</svg>
