<?xml version="1.0" encoding="UTF-8" standalone="no"?>
<svg
   xmlns:dc="http://purl.org/dc/elements/1.1/"
   xmlns:cc="http://creativecommons.org/ns#"
   xmlns:rdf="http://www.w3.org/1999/02/22-rdf-syntax-ns#"
   xmlns:svg="http://www.w3.org/2000/svg"
   xmlns="http://www.w3.org/2000/svg"
   xmlns:xlink="http://www.w3.org/1999/xlink"
   xmlns:sodipodi="http://sodipodi.sourceforge.net/DTD/sodipodi-0.dtd"
   xmlns:inkscape="http://www.inkscape.org/namespaces/inkscape"
   fill="#000000"
   height="24"
   viewBox="0 0 24 24"
   width="24"
   version="1.1"
   id="svg10"
   sodipodi:docname="timeseries_sideBySide.svg"
   inkscape:version="0.92.0 r15299">
  <metadata
     id="metadata14">
    <rdf:RDF>
      <cc:Work
         rdf:about="">
        <dc:format>image/svg+xml</dc:format>
        <dc:type
           rdf:resource="http://purl.org/dc/dcmitype/StillImage" />
        <dc:title></dc:title>
      </cc:Work>
    </rdf:RDF>
  </metadata>
  <sodipodi:namedview
     pagecolor="#ffffff"
     bordercolor="#666666"
     borderopacity="1"
     objecttolerance="10"
     gridtolerance="10"
     guidetolerance="10"
     inkscape:pageopacity="0"
     inkscape:pageshadow="2"
     inkscape:window-width="1920"
     inkscape:window-height="1001"
     id="namedview12"
     showgrid="false"
     inkscape:zoom="9.8333333"
     inkscape:cx="12"
     inkscape:cy="12"
     inkscape:window-x="-9"
     inkscape:window-y="-9"
     inkscape:window-maximized="1"
     inkscape:current-layer="svg10" />
  <defs
     id="defs3">
    <path
       d="M0 0h24v24H0V0z"
       id="a" />
    <clipPath
       id="b-5">
      <use
         overflow="visible"
         xlink:href="#a"
         id="use5-4" />
    </clipPath>
    <clipPath
       id="b-2">
      <use
         overflow="visible"
         xlink:href="#a"
         id="use5-8" />
    </clipPath>
    <clipPath
       id="b-9">
      <use
         overflow="visible"
         xlink:href="#a"
         id="use5-0" />
    </clipPath>
  </defs>
  <clipPath
     id="b">
    <use
       overflow="visible"
       xlink:href="#a"
       id="use5" />
  </clipPath>
  <path
     clip-path="url(#b)"
     d="m 23,8 c 0,1.1 -0.9,2 -2,2 -0.18,0 -0.35,-0.02 -0.51,-0.07 l -3.56,3.55 C 16.98,13.64 17,13.82 17,14 c 0,1.1 -0.9,2 -2,2 -1.1,0 -2,-0.9 -2,-2 0,-0.18 0.02,-0.36 0.07,-0.52 L 10.52,10.93 C 10.36,10.98 10.18,11 10,11 9.82,11 9.64,10.98 9.48,10.93 L 4.93,15.49 C 4.98,15.65 5,15.82 5,16 5,17.1 4.1,18 3,18 1.9,18 1,17.1 1,16 c 0,-1.1 0.9,-2 2,-2 0.18,0 0.35,0.02 0.51,0.07 L 8.07,9.52 C 8.02,9.36 8,9.18 8,9 8,7.9 8.9,7 10,7 c 1.1,0 2,0.9 2,2 0,0.18 -0.02,0.36 -0.07,0.52 l 2.55,2.55 C 14.64,12.02 14.82,12 15,12 c 0.18,0 0.36,0.02 0.52,0.07 L 19.07,8.51 C 19.02,8.35 19,8.18 19,8 c 0,-1.1 0.9,-2 2,-2 1.1,0 2,0.9 2,2 z"
     id="path8"
     inkscape:connector-curvature="0"
     transform="matrix(0.40825351,0,0,0.47760295,1.4992966,7.1568492)" />
  <rect
     style="fill:none;stroke:#000000;stroke-width:1.02482378;stroke-opacity:1"
     id="rect3707"
     width="21.966103"
     height="22.002134"
     x="1.0169492"
     y="1.0826108"
     ry="2.3497424"
     rx="0" />
  <path
     style="fill:none;stroke:#000000;stroke-width:1.02300143px;stroke-linecap:butt;stroke-linejoin:miter;stroke-opacity:1"
     d="m 11.794916,1.2070422 0.104895,21.0487938 -0.20979,-0.206361"
     id="path4552"
     inkscape:connector-curvature="0" />
  <path
     clip-path="url(#b-9)"
     d="m 23,8 c 0,1.1 -0.9,2 -2,2 -0.18,0 -0.35,-0.02 -0.51,-0.07 l -3.56,3.55 C 16.98,13.64 17,13.82 17,14 c 0,1.1 -0.9,2 -2,2 -1.1,0 -2,-0.9 -2,-2 0,-0.18 0.02,-0.36 0.07,-0.52 L 10.52,10.93 C 10.36,10.98 10.18,11 10,11 9.82,11 9.64,10.98 9.48,10.93 L 4.93,15.49 C 4.98,15.65 5,15.82 5,16 5,17.1 4.1,18 3,18 1.9,18 1,17.1 1,16 c 0,-1.1 0.9,-2 2,-2 0.18,0 0.35,0.02 0.51,0.07 L 8.07,9.52 C 8.02,9.36 8,9.18 8,9 8,7.9 8.9,7 10,7 c 1.1,0 2,0.9 2,2 0,0.18 -0.02,0.36 -0.07,0.52 l 2.55,2.55 C 14.64,12.02 14.82,12 15,12 c 0.18,0 0.36,0.02 0.52,0.07 L 19.07,8.51 C 19.02,8.35 19,8.18 19,8 c 0,-1.1 0.9,-2 2,-2 1.1,0 2,0.9 2,2 z"
     id="path8-9"
     inkscape:connector-curvature="0"
     transform="matrix(0.40825351,0,0,0.47760295,12.592484,7.3239246)" />
</svg>
